<?xml version="1.0" encoding="UTF-8"?> <svg xmlns="http://www.w3.org/2000/svg" width="32" height="32" viewBox="0 0 32 32" fill="none"><path d="M21.7614 21.5782C21.9839 21.3453 22.3532 21.3368 22.5861 21.5593L24.513 23.4002L24.5342 23.4215C24.7461 23.6457 24.7473 23.9992 24.5317 24.2249C24.3161 24.4505 23.9628 24.4655 23.7292 24.2639L23.707 24.2437L21.7803 22.4029C21.5474 22.1804 21.5389 21.8112 21.7614 21.5782Z" fill="#CB2027"></path><path d="M19.4168 17.0694C19.739 17.0695 20.0002 17.3306 20.0002 17.6528V18.9166C20.0002 18.9694 19.993 19.0206 19.9798 19.0693L20.6593 19.7185C20.8922 19.9411 20.9007 20.3103 20.6782 20.5432C20.4557 20.7761 20.0863 20.7846 19.8534 20.5621L19.0291 19.7747L18.0272 19.8792L17.9972 19.8814C17.6891 19.8979 17.4189 19.6697 17.3866 19.3593C17.3532 19.0389 17.5858 18.7521 17.9062 18.7187L18.8335 18.622V17.6528C18.8335 17.3306 19.0947 17.0694 19.4168 17.0694Z" fill="#CB2027"></path><path d="M15.5184 18.9674C15.8388 18.934 16.1256 19.1668 16.159 19.4872C16.1923 19.8076 15.9596 20.0943 15.6393 20.1277L13.2515 20.3764L13.2215 20.3788C12.9134 20.3952 12.6432 20.1671 12.6108 19.8567C12.5775 19.5363 12.8101 19.2495 13.1305 19.2161L15.5184 18.9674Z" fill="#CB2027"></path><path d="M19.4168 12.0138C19.7389 12.0138 20.0001 12.275 20.0002 12.5971V15.1249C20.0001 15.447 19.7389 15.7082 19.4168 15.7083C19.0947 15.7082 18.8335 15.447 18.8335 15.1249V12.5971C18.8335 12.275 19.0947 12.0138 19.4168 12.0138Z" fill="#CB2027"></path><path fill-rule="evenodd" clip-rule="evenodd" d="M19.8843 3.0009C20.0377 2.99236 20.1888 3.04462 20.3042 3.14722L27.8042 9.81389C27.8144 9.82298 27.8242 9.8325 27.8337 9.84221C27.8356 9.84416 27.8375 9.8461 27.8394 9.84807C27.8436 9.85259 27.8479 9.85711 27.8521 9.86174C27.8551 9.86519 27.858 9.8688 27.861 9.87232C27.8642 9.87611 27.8675 9.87985 27.8706 9.88372C27.8743 9.88826 27.8778 9.8929 27.8813 9.89755C27.8836 9.90051 27.886 9.90334 27.8882 9.90634C27.9286 9.96174 27.9594 10.0248 27.9784 10.0932C27.9794 10.0969 27.9803 10.1007 27.9813 10.1044C27.9826 10.1097 27.984 10.1149 27.9852 10.1202C27.9867 10.1266 27.988 10.1331 27.9893 10.1396C27.9897 10.142 27.9901 10.1443 27.9906 10.1467C27.9918 10.1536 27.993 10.1605 27.994 10.1674C27.9945 10.171 27.995 10.1747 27.9954 10.1783C27.9963 10.1852 27.9969 10.1922 27.9976 10.1991C27.9977 10.2004 27.9979 10.2018 27.998 10.2031C27.9981 10.2043 27.9981 10.2056 27.9982 10.2068C27.9987 10.2141 27.9991 10.2214 27.9993 10.2288C27.9995 10.232 27.9996 10.2353 27.9997 10.2385C27.9997 10.2423 28 10.2461 28 10.2499V26.9166C28 27.2162 27.7729 27.4671 27.4748 27.497L10.8081 29.1637C10.6109 29.1834 10.4169 29.1016 10.2935 28.9465L4.12679 21.1965C4.04466 21.0933 4.00002 20.9652 4 20.8333V5.24993L4.00065 5.22209C4.01411 4.93672 4.23359 4.70118 4.52035 4.67001L19.8537 3.00334L19.8843 3.0009ZM26.8333 10.8827C23.735 11.1415 21.4449 11.402 19.1486 11.6629C16.8268 11.9266 14.4985 12.191 11.3322 12.454V19.7992C11.3586 19.8562 11.3764 19.9185 11.3833 19.9845C11.3946 20.0931 11.3751 20.1979 11.3322 20.2903V27.9166C11.3322 27.924 11.3318 27.9314 11.3315 27.9387L26.0355 26.4684L25.6338 26.0846C25.4009 25.862 25.3925 25.4928 25.6151 25.2599C25.8376 25.027 26.2068 25.0185 26.4398 25.241L26.8333 25.617V10.8827ZM5.16667 20.0453L5.96696 19.962C6.28736 19.9287 6.57421 20.1615 6.60758 20.4819C6.64089 20.8022 6.40823 21.0891 6.08789 21.1225L5.59945 21.1733L10.1655 26.9117V20.6977L8.47575 20.8738L8.4458 20.8761C8.13764 20.8925 7.86749 20.6643 7.83512 20.3539C7.8018 20.0335 8.03443 19.7467 8.35482 19.7133L10.1655 19.5248V12.1401L5.16667 6.57691V20.0453ZM5.9375 5.68938L10.9894 11.3116C14.2633 11.0435 16.6367 10.7741 19.0169 10.5037C19.02 10.5033 19.0231 10.5029 19.0262 10.5025C18.9079 10.3958 18.8335 10.2413 18.8335 10.0694V7.54159C18.8335 7.21944 19.0947 6.95828 19.4168 6.95826C19.739 6.9583 20.0002 7.21945 20.0002 7.54159V10.0694C20.0001 10.194 19.9606 10.3093 19.894 10.4041C21.7304 10.1966 23.6354 9.98904 26.0125 9.78215L20.0002 4.43791V5.01376C20.0001 5.33587 19.7389 5.59705 19.4168 5.59709C19.0947 5.59708 18.8335 5.33588 18.8335 5.01376V4.28752L5.9375 5.68938Z" fill="#CB2027"></path></svg> 